<?xml version="1.0" encoding="UTF-8" standalone="no"?>
<!-- Created with Inkscape (http://www.inkscape.org/) -->

<svg
   width="96"
   height="96"
   viewBox="0 0 25.399999 25.4"
   version="1.1"
   id="svg5"
   xml:space="preserve"
   inkscape:export-filename="Rastergrafik.png"
   inkscape:export-xdpi="96"
   inkscape:export-ydpi="96"
   inkscape:version="1.1.2 (0a00cf5339, 2022-02-04)"
   sodipodi:docname="folder_icon_enlightenment_new.svg"
   xmlns:inkscape="http://www.inkscape.org/namespaces/inkscape"
   xmlns:sodipodi="http://sodipodi.sourceforge.net/DTD/sodipodi-0.dtd"
   xmlns="http://www.w3.org/2000/svg"
   xmlns:svg="http://www.w3.org/2000/svg"><sodipodi:namedview
     id="namedview7"
     pagecolor="#ffffff"
     bordercolor="#666666"
     borderopacity="1.0"
     inkscape:showpageshadow="2"
     inkscape:pageopacity="0.0"
     inkscape:pagecheckerboard="0"
     inkscape:deskcolor="#d1d1d1"
     inkscape:document-units="mm"
     showgrid="false"
     showguides="true"
     inkscape:zoom="5.6568543"
     inkscape:cx="44.194174"
     inkscape:cy="47.641319"
     inkscape:window-width="1600"
     inkscape:window-height="833"
     inkscape:window-x="0"
     inkscape:window-y="0"
     inkscape:window-maximized="1"
     inkscape:current-layer="layer4"
     inkscape:pageshadow="2"
     inkscape:guide-bbox="true"
     inkscape:snap-global="false" /><defs
     id="defs2" /><g
     inkscape:groupmode="layer"
     id="layer4"
     inkscape:label="Ebene"
     style="display:inline;fill:#fff078;fill-opacity:1"><rect
       style="display:inline;opacity:0.949049;fill:#c7c7c4;fill-opacity:1;stroke:none;stroke-width:0.265136;stroke-linecap:round;stroke-linejoin:miter;stroke-miterlimit:0;stroke-dasharray:none;stroke-opacity:1"
       id="rect10067-6-5"
       width="19.142948"
       height="16.701307"
       x="2.9757435"
       y="4.5549998"
       ry="0.75590873" /><path
       id="path14021-7-3"
       style="color:#000000;display:inline;fill:#ffffff;stroke-width:0.990785;stroke-linecap:round;stroke-linejoin:round;-inkscape-stroke:none"
       d="M 3.5366892,4.8844656 C 3.2276185,4.8847581 2.9774407,5.0817067 2.978067,5.3242322 V 5.5288707 C 2.9774407,5.7713962 3.2276185,5.9683448 3.5366892,5.9686373 H 14.267817 c 0.309878,6.053e-4 0.561318,-0.196607 0.560689,-0.4397666 V 5.3242322 C 14.829135,5.0810726 14.577695,4.8838603 14.267817,4.8844656 Z m 1.753898,5.168e-4 V 5.1190767 5.4151828 L 2.9780691,5.3252679 2.976,5.6492768 v 0.3188436 h 9.639721 V 5.4513561 h 2.214852 V 4.8849824 Z M 3.5366892,4.5554656 C 3.2276185,4.5557581 2.9774407,4.7527067 2.978067,4.9952322 V 5.1998707 C 2.9774407,5.4423962 3.2276185,5.6393448 3.5366892,5.6396373 H 14.267817 c 0.309878,6.053e-4 0.561318,-0.196607 0.560689,-0.4397666 V 4.9952322 C 14.829135,4.7520726 14.577695,4.5548603 14.267817,4.5554656 Z m 1.753898,5.168e-4 V 4.7900767 5.0861828 L 2.9780691,4.9962679 2.976,5.3202768 v 0.3188436 h 9.639721 V 5.1223561 h 2.214852 V 4.5559824 Z" /><path
       id="path6625-6-7"
       style="color:#000000;display:inline;fill:#fff078;fill-opacity:1;stroke-width:3.77953;stroke-linecap:round;stroke-linejoin:round;-inkscape-stroke:none"
       d="m 63.595703,15.007812 a 4.7248819,4.7248819 0 0 0 -4.716797,4.646485 v -0.970703 a 4.7248819,4.7248819 0 0 0 -0.0078,0.08789 v 0.960938 1.794922 h -0.002 v 0.15625 a 2.2663392,2.373861 0 0 1 -2.160157,2.373047 H 13.826172 A 4.7248819,4.7248819 0 0 0 9.1015625,28.78125 v 0.960938 23.208984 0.960937 H 85.740234 V 19.732422 a 4.7248819,4.7248819 0 0 0 -4.724609,-4.72461 z M 9.1015625,53.917969 v 23.310547 a 4.7248819,4.7248819 0 0 0 4.7246095,4.724609 h 67.189453 a 4.7248819,4.7248819 0 0 0 4.724609,-4.724609 V 53.917969 Z"
       transform="scale(0.26458333)" /><rect
       style="display:inline;opacity:0.33;fill:#808080;fill-opacity:1;stroke:none;stroke-width:3.10222;stroke-linecap:round;stroke-linejoin:round;stroke-miterlimit:4;stroke-dasharray:none;stroke-opacity:1"
       id="rect7581-3"
       width="20.276934"
       height="0.69268489"
       x="2.4086914"
       y="19.104837" /></g></svg>
